<svg width="0" height="0" class="hidden">
  <symbol version="1.1" id="instagram" xmlns="http://www.w3.org/2000/svg" xmlns:xlink="http://www.w3.org/1999/xlink" x="0px" y="0px" enable-background="new 0 0 56.7 56.7" xml:space="preserve" viewBox="0 0 56.7 56.7">
    <g>
      <path d="M28.2,16.7c-7,0-12.8,5.7-12.8,12.8s5.7,12.8,12.8,12.8S41,36.5,41,29.5S35.2,16.7,28.2,16.7z M28.2,37.7
		c-4.5,0-8.2-3.7-8.2-8.2s3.7-8.2,8.2-8.2s8.2,3.7,8.2,8.2S32.7,37.7,28.2,37.7z"></path>
      <circle cx="41.5" cy="16.4" r="2.9"></circle>
      <path d="M49,8.9c-2.6-2.7-6.3-4.1-10.5-4.1H17.9c-8.7,0-14.5,5.8-14.5,14.5v20.5c0,4.3,1.4,8,4.2,10.7c2.7,2.6,6.3,3.9,10.4,3.9
		h20.4c4.3,0,7.9-1.4,10.5-3.9c2.7-2.6,4.1-6.3,4.1-10.6V19.3C53,15.1,51.6,11.5,49,8.9z M48.6,39.9c0,3.1-1.1,5.6-2.9,7.3
		s-4.3,2.6-7.3,2.6H18c-3,0-5.5-0.9-7.3-2.6C8.9,45.4,8,42.9,8,39.8V19.3c0-3,0.9-5.5,2.7-7.3c1.7-1.7,4.3-2.6,7.3-2.6h20.6
		c3,0,5.5,0.9,7.3,2.7c1.7,1.8,2.7,4.3,2.7,7.2V39.9L48.6,39.9z"></path>
    </g>
  </symbol>
  <symbol enable-background="new 0 0 24 24" id="youtube" version="1.1" xml:space="preserve" xmlns="http://www.w3.org/2000/svg" xmlns:xlink="http://www.w3.org/1999/xlink" viewBox="0 0 24 24">
    <g>
      <path d="M23.3,7.3c0-0.2-0.3-1.8-1-2.5c-0.9-1-1.9-1.1-2.4-1.1l-0.1,0c-3.1-0.2-7.7-0.2-7.8-0.2c0,0-4.7,0-7.8,0.2l-0.1,0   c-0.5,0-1.5,0.1-2.4,1.1c-0.7,0.8-1,2.4-1,2.6c0,0.1-0.2,1.9-0.2,3.8v1.7c0,1.9,0.2,3.7,0.2,3.8c0,0.2,0.3,1.8,1,2.5   c0.8,0.9,1.8,1,2.4,1.1c0.1,0,0.2,0,0.3,0c1.8,0.2,7.3,0.2,7.5,0.2c0,0,0,0,0,0c0,0,4.7,0,7.8-0.2l0.1,0c0.5-0.1,1.5-0.2,2.4-1.1   c0.7-0.8,1-2.4,1-2.6c0-0.1,0.2-1.9,0.2-3.8v-1.7C23.5,9.3,23.3,7.4,23.3,7.3z M15.9,12.2l-6,3.2c-0.1,0-0.1,0.1-0.2,0.1   c-0.1,0-0.2,0-0.2-0.1c-0.1-0.1-0.2-0.2-0.2-0.4l0-6.5c0-0.2,0.1-0.3,0.2-0.4S9.8,8,10,8.1l6,3.2c0.2,0.1,0.3,0.2,0.3,0.4   S16.1,12.1,15.9,12.2z"></path>
    </g>
  </symbol>
  <symbol enable-background="new 0 0 56.693 56.693" id="twitter" version="1.1" xml:space="preserve" xmlns="http://www.w3.org/2000/svg" xmlns:xlink="http://www.w3.org/1999/xlink" viewBox="0 0 56.693 56.693">
    <path d="M52.837,15.065c-1.811,0.805-3.76,1.348-5.805,1.591c2.088-1.25,3.689-3.23,4.444-5.592c-1.953,1.159-4.115,2-6.418,2.454  c-1.843-1.964-4.47-3.192-7.377-3.192c-5.581,0-10.106,4.525-10.106,10.107c0,0.791,0.089,1.562,0.262,2.303  c-8.4-0.422-15.848-4.445-20.833-10.56c-0.87,1.492-1.368,3.228-1.368,5.082c0,3.506,1.784,6.6,4.496,8.412  c-1.656-0.053-3.215-0.508-4.578-1.265c-0.001,0.042-0.001,0.085-0.001,0.128c0,4.896,3.484,8.98,8.108,9.91  c-0.848,0.23-1.741,0.354-2.663,0.354c-0.652,0-1.285-0.063-1.902-0.182c1.287,4.015,5.019,6.938,9.441,7.019  c-3.459,2.711-7.816,4.327-12.552,4.327c-0.815,0-1.62-0.048-2.411-0.142c4.474,2.869,9.786,4.541,15.493,4.541  c18.591,0,28.756-15.4,28.756-28.756c0-0.438-0.009-0.875-0.028-1.309C49.769,18.873,51.483,17.092,52.837,15.065z"></path>
  </symbol>
  <symbol enable-background="new 0 0 56.693 56.693" id="facebook" version="1.1" xml:space="preserve" xmlns="http://www.w3.org/2000/svg" xmlns:xlink="http://www.w3.org/1999/xlink" viewBox="0 0 56.693 56.693">
    <path d="M40.43,21.739h-7.645v-5.014c0-1.883,1.248-2.322,2.127-2.322c0.877,0,5.395,0,5.395,0V6.125l-7.43-0.029  c-8.248,0-10.125,6.174-10.125,10.125v5.518h-4.77v8.53h4.77c0,10.947,0,24.137,0,24.137h10.033c0,0,0-13.32,0-24.137h6.77  L40.43,21.739z"></path>
  </symbol>
  <symbol version="1.2" xmlns="http://www.w3.org/2000/svg" viewBox="0 0 158 207" id="cup">
    <path id="Shape" fill-rule="evenodd" d="m3.1 163.2c-8.2-26.7 1-57.7 14.2-81.3 0.9-1.7 2.8-1.6 4-0.7 4.4-6.2 17-3 22.7-2 25.4 4.7 49.6 13.2 72.9 24.3 3.2 1.4 18.9 8.2 21.4 14.7 1.2 0.3 2.2 1.2 2.1 2.8-0.5 4.3-1.2 8.7-2.1 13.1 6.6-1.8 13.4 3.2 16.5 9.2 5.2 9.9 3.4 24.3-0.3 34.3-6.2 17.1-31.6 31.3-44.1 12.9-1.8 1.8-3.7 3.4-5.7 5-12.6 9.7-30.5 14.6-45.5 9.4-3.3 0-6.8-0.9-9.9-1.6-6.2-1.3-12.3-3.4-17.4-7q-0.1-0.1-0.2-0.2c-13.8-5.3-24.3-18.7-28.6-32.9zm120 11.4c5.1 4.6 11.4 4.2 15.2-2.6 1.9-3.4 2.3-7.5 2.4-11.3 0-1.6 0.1-3.3-0.2-4.9q-0.4-1.3-0.8-2.6-2.9-1-5.8-2c-2.8 8.2-6.3 16.1-10.8 23.4zm-8.4 11.4c28.4 28.3 55.7-42.3 22.7-47.5q-1.3 5.4-3 10.8c2.1-1.2 4.7-0.4 6.4 1.7 3.9 4.6 2.7 14.4 1 19.5-1.7 5.4-5.7 10-11.5 11-3.7 0.7-7.6 0-10.1-2.5q-2.6 3.7-5.5 7zm-83.8-93.8q2.3 1.2 4.6 2.3c0-0.4 0.4-0.8 1-0.8 27.8 1.9 58.5 10.3 81.6 26.1 0.5 0.3 0.7 0.7 0.8 1.1q7.3 0.8 14.7 1.1c-0.4-12.4-60.7-30.5-69.7-32.8-6.8-1.8-13.6-3.3-20.5-4.4-2.2-0.3-12.9-3.3-14.9-1.2-2.9 2.9-0.9 5.9 2.4 8.6zm7.8 4c10.4 5.4 20.8 10.8 32.3 14.5 13.2 4.1 26.6 7.2 40.2 9.2-23.8-11.5-45.9-19.8-72.5-23.7zm-30.4 55.1c3.1 23.2 18.3 38.4 40 45.6 21.9 6.6 43 2.9 59.1-14.1 14.4-15.4 18.7-34.8 24.4-54-21.3-1.4-42.5-5.1-62.5-12.6-9.5-3.6-20-7.7-29.8-12.8-5.9-1.8-13.8-5.7-17.5-11.1q-0.8-0.6-1.5-1.2c-6.7 19.7-15.1 38.6-12.2 60.2zm68.3-80.6c-2.6-6.8-3.2-12.7-0.1-19.6 5.2-11.7 18.6-16.4 12.6-31-0.8-2.2 1.2-3.8 3.2-2.9 6.5 3.2 6.2 11.5 3.6 17.4-1.9 4.6-5.7 7.8-8.9 11.5-6.3 7.1-9.4 14.7-8.8 24.2 0.1 0.9-1.3 1.2-1.6 0.4zm35.5-67.7c-0.8-2.6 2.7-4 4.3-2.3 8.7 9.1 9.2 24.9 5.6 36.4-5.4 16.9-28.8 25.1-26.6 43.6 0.1 0.9-0.9 1.4-1.5 0.8-8.4-8-0.8-18.9 5.8-25.3 8.4-8.2 15.6-14.6 17.3-27 1.3-9.6-2.2-17.4-4.9-26.2z"></path>
  </symbol>
  <symbol version="1.2" xmlns="http://www.w3.org/2000/svg" viewBox="0 0 236 257" id="kettle">
    <path id="Shape" fill-rule="evenodd" d="m176.7 222.1c10.3-7.2 20.6-14.6 30.9-21.8-10 7.1-20.2 14.3-30.9 21.8zm-58.7-85.4c4.1-2.6 7.7-4.9 11.4-7.3q-5.7 3.7-11.4 7.3zm115.2 45.7q0.4-0.2 0.7-0.4-0.4 0.3-0.8 0.5 0-0.1 0.1-0.1zm-125.5-155.6q0.1 0 0.2-0.1 0 0 0 0 0 0 0.1-0.1 0 0 0 0-0.1 0.1-0.1 0.1c-4 0.5-8 0.8-12 1.3-15.4 1.8-31.1 5.1-46.5 6.2q0-0.1 0-0.1 0 0 0 0c0 0-0.1 0.1-0.1 0.1-0.2 0.3-0.7 0.9-0.6 1l-3.5-5.1c0-0.1 0.6-0.6 0.9-0.8 0 0 0.1 0 0.1-0.1q0.6-0.4 1.3-0.5 2.7-0.7 5.5-1.3 0 0 0 0 0 0 0 0 0 0 0 0c-3-5.6-7.5-13.3-7.8-20-0.8 0.5-1.6 0.8-2.4 1.1q-0.4 0.2-0.9 0.3c-2.4 0.8-4.9 1.3-7.3 2.6-0.4 0.2-1.4 0.9-1.4 0.9l-3-4.5c0-0.1 1.1-0.9 1.7-1.2 3.9-2.8 9.2-5.1 13.3-3.2 1 0.4 1.4 1.6 1.2 2.6 5.3 4.1 9 13 11.6 19 0.2 0.5 0.2 0.9 0.1 1.4 11.8-2 24.3-2.4 35.9-3.3 7.3-0.5 14.7-1.5 22-0.9q0.3-0.6 0.8-1c1.1-0.9 2.6-1.1 3.6 0 2.5-2 5.2-3.9 7.9-5.6 2.7-1.8 5.4-3.5 8-5.1q0.5-0.3 1-0.6c1.9-1.4 4.4-3.4 7.1-5.2 4.1-2.7 8.5-5.1 11.8-4.1 1.2 0.3 2.2 1.4 1.9 2.8q0 0 0 0c9.8 12.5 18.7 25.8 27.7 39q4.5 6.6 9 13c1.3 1.8 0 3.6-1.5 4.1 0.5 0.5 0.8 1.2 0.9 1.9 0.6 7.2 0.2 14.6-0.3 21.9-0.5 6.7-0.2 15.4-3.5 21.4-0.9 1.5-3.5 2-4.5 0.5-0.4 0.3-0.9 0.4-1.5 0.4-4.5-0.6-9.7-0.8-13.8-2.7-0.8-0.4-0.9-1.8 0.1-2 4.6-1 9.9 0.1 14.5 0.6-0.7-7.9 1.7-17.1 2.2-24.9 0.3-4.8-1.7-15.2 3.1-18 0-0.1-0.1-0.1-0.1-0.1-11.4-17.2-23.9-33.9-34.4-51.7-3.9 4.2-11.9 7-15.9 9.3-5.3 3.1-11.1 6.7-17 9.2 1.7 3.3 2.8 7.3 4.1 10.4q1.8 4.3 3.6 8.6c1.7-2.7 4-4.9 6.5-7 2.8-2.3 6.1-5.3 9.7-6.1 1.3-0.3 2.3 0.8 2.1 1.9 4.2 3.2 7.5 7.5 10.8 11.8 3.6 4.6 8.2 9.1 10.1 14.7q0.1 0.3 0.1 0.6c0.2 0.2 0.4 0.4 0.4 0.7 0.1 7.6 0.9 15.1 0.5 22.7-0.2 6 0 12.3-2.3 18-0.1 0.2-0.5 0.2-0.6-0.1-2.3-6.2-1.6-13.5-1.5-20.1 0.1-6.8 1.1-13.4 1.6-20.1q-0.2 0-0.4-0.1c-5-3.3-8.2-9.1-11.8-13.7-3.1-4-6.2-8-8.3-12.6-2 1.9-4.6 3.3-6.8 4.9-3 2.2-5.9 4.5-9.1 6.1-0.1 0.1-0.2 0.1-0.3 0.1q4.6 11 9.1 22.1c4.5 10.8 8.9 21.5 13 32.5 1.3 3.4 4.3 8.7 4.4 12.9 17.5 9.3 32.7 26.6 48 39.3 9.4 7.8 18.8 15.4 28.2 23.2 2.3 1.8 1.4 4.5-0.4 5.8-0.2 0.2-0.6 0.2-0.8 0.3q-0.1 0-0.1 0.1c-4.8 3.2-9.4 6.6-14.2 10-0.2 0.1-0.4 0.5-0.6 0.7q-5.3 3.6-10.5 7.4c-10.3 7.2-20.7 14.6-31 21.9-0.5 0.3-1.5 1-1.5 1l-5.2-7.6c6.9-4.7 15.4-10.9 23.2-16 0.3-0.2 0.3-0.9 0.6-1.1-21.2-19.1-42.8-38.1-59.8-63.3q0 0 0 0c-4.1 2.7-7.4 5.9-12 8.9l-4.6-6.9c0 0 0.4-0.2 0.6-0.4 3.8-2.4 7.8-4.9 11.6-7.3 0.2-0.1 0.4-0.2 0.6-0.4q0 0 0 0c-14.5-26.6-26.2-54.1-39.1-82.1q0 0.1-0.1 0.1c-7.8 5.2-16.9 10.9-23.8 15.6l-3.6-5.4c6.8-4.8 14-9.7 20.9-14.6 0.7-0.4 1.4-0.9 2.1-1.4q0.1-0.1 0.2-0.2c7-4.8 13.8-9.5 21-14.3q-0.2 0.1-0.3 0.2 0.2-0.1 0.3-0.2 0 0 0 0zm23.5 101.5c7-4.4 13.8-8.8 20.4-13.5 1.3-1 2.8-0.8 3.8-0.1q0 0 0-0.1c-2.8-2.7-4.5-8.6-6-11.6-4.9-10.4-9.5-21.1-14-31.7-4.8-11.2-9.6-22.3-14.4-33.5-1.2-2.9-3.1-6.1-4.3-9.4-0.2 0.2-0.3 0.4-0.6 0.6q-10.8 7.6-21.7 15.1c12.7 27.9 26.2 55.5 36.8 84.2zm67.6 67.6c0.1 0.1 0.2 0.2 0.3 0.4 8.8-5.8 17.7-11.6 26.4-17.5-8.2-6.6-16.3-13.4-24.3-20.3-14.3-12.1-33.5-24.9-44.1-40.8 0 1.1-0.4 2.3-1.5 3.1-6.4 4.5-12.8 9.1-19.3 13.6 10.3 9.6 19.4 20.7 29.5 30.5q16.3 15.8 33 31zm-80.3 58c-6.7-15.7-13-31.6-19.4-47.4-4.1-10.2-8.4-20.4-12.2-30.7-1-2.8-3-6.7-3.4-10.2-0.5 0-0.9-0.7-0.5-1.1q0.2-0.2 0.4-0.4 0-0.7 0.1-1.3c0-0.2 0.1-0.3 0.2-0.4-1.8-1.3-3.5-3.2-4.7-4.3-5.3-4.5-10.3-9.2-15.3-14q-2.6-2.4-5.1-4.8c-6.8-6.5-13.7-13.1-20.5-19.7-2.4-2.3-6.3-5-8-8.1-3.7 0-7.4-1.1-10.9-1.9q-6.5-1.5-12.9-3c-1.2-0.3-1.9-1-2.3-1.8q-0.5 0.2-0.9 0.5c-1.1 0.6-2 0.2-2.6-0.4-0.1-0.1-0.2-0.2-0.2-0.3-0.4-0.8-0.4-1.9 0.6-2.6q0.5-0.5 1-0.9c6.2-12.4 14.8-23.7 21.8-35.6 5.2-8.8 10.1-17.9 15.7-26.6-2.2-1-4-2.7-5.9-4.2q-4.9-3.9-9.6-8c-0.6-0.6-0.9-1.2-0.9-1.9-0.5-0.1-1-0.5-1.1-1.1-0.7-5.6 3-11.4 7.1-14.9 0.3-0.4 1.1-0.9 1.1-1l3 4.5c0 0 0.1 0 0 0-3.5 2.7-5.4 6.1-7.4 9.7 0.6 0 1.2 0.2 1.7 0.6q1 0.8 2 1.6c2.1 1.9 4.3 3.7 6.4 5.5 0.4 0.4 0.8 0.7 1.2 1 1.7 1.5 3.7 2.8 4.9 4.6q0 0 0 0c1.8-2.2 2.1-3.3 3.3-5l3.4 5c0 0 0 0.1 0 0.2-7.1 13.1-15.4 25.8-23.6 38.3-4.2 6.5-8.5 13.4-13.2 19.9 15-10.1 29.8-20.7 44.5-31.1 2.4-1.7 4.9-3.6 7.1-5.2l3.6 5.3c-2.3 1.6-4.5 3.5-7 5.2q0 0 0 0c-6.6 4.4-13.3 8.7-19.9 13.3 24.7 18 47.4 39.8 70.1 60.3 2.2-1.5 4.3-3.3 6.6-4.8 0-0.1 0 0 0 0l5 7.5q-3.5 2.3-7 4.4 0 0 0 0c13.7 25.4 23.4 54.8 34.6 81.4q0 0 0 0 10.1-7.3 20.5-14.4l5.1 7.7q0 0-0.1 0.1c-4 2.7-7.8 5.4-11.8 8.1-12 8.1-24 16-36.4 23.2-0.5 0.4-1 0.4-1.5 0.4q-0.3 0.3-0.7 0.6c-1.8 1.2-4.8 0.9-6-1.8zm-106.7-160.2q0 0 0 0 0 0 0 0 0 0 0 0zm33.4-63.5q0 0 0 0zm0.1 0q0 0.1-0.1 0.1v-0.1c0 0 0.1 0 0.1 0zm-12.2-17.9c0.1 0 0 0 0 0q0 0 0 0zm113.4 219.8c-11.8-26.4-26.3-53.9-34.4-81.8-7.9 4.9-16 9.3-24.2 13.3 2.2 2.8 3.6 7.2 5 10.2 4.6 10 8.8 20.2 13.1 30.4 6.3 14.9 12.7 29.8 18.8 44.8 7.1-5.8 14.3-11.4 21.7-16.9zm-135.4-131.5q4.7 1.2 9.4 2.4c3.8 1 8 1.7 11.4 3.8 0.6-0.2 1.2-0.1 1.8 0.1 3.8 1.3 7.3 6.5 10.1 9.2 6.6 6.5 13.2 13 19.8 19.6 6.4 6.4 12.9 12.8 18.9 19.6 1.2 1.3 3.4 3.1 4.6 5 5.9-5.7 12.4-10.9 19.3-15.7-23-20-47.5-39.9-68.1-62.1-8.9 6.2-17.9 12.5-27.2 18.1zm72.4 62.2q-0.1 0.6-0.1 1.3 0-0.7 0.1-1.3zm-0.1 1.3q-0.2 0.2-0.4 0.4 0.2-0.2 0.4-0.4zm-0.4 0.4c-0.4 0.4 0 1.1 0.5 1.1-0.5 0-0.9-0.7-0.5-1.1zm16.1 42c6.5 15.8 12.8 31.7 19.5 47.4-6.7-15.7-13-31.6-19.5-47.4zm19.5 47.4c1.1 2.7 4.1 3 5.9 1.8-1.8 1.2-4.8 0.9-5.9-1.8zm100.2-61.6q-0.3 0.3-0.7 0.6 0.4-0.3 0.7-0.6z"></path>
  </symbol>
  <symbol version="1.2" xmlns="http://www.w3.org/2000/svg" viewBox="0 0 101 115" id="coffee">
    <path id="Shape" fill-rule="evenodd" d="m19.7 60.7c-1.8-1-1.8-2.9-0.9-4.2 0.6-1.3 2.2-2.1 4-1.1 1.1 0.6 1.2 1.4 0.8 2.1-0.8 1.6-3.9 3.2-3.9 3.2zm15.5-19.3c1.7 1-0.1 4.2-1.8 3.3-3.5-2-1.7-5.2 1.8-3.3zm15.2-7.1c0.8 0.1 1.2 0.6 1.4 1.3 0.4 0.8-0.4 1.8-1.3 1.8-0.7-0.1-1.3-0.3-1.6-1-0.6-1.1 0.3-2.3 1.5-2.1zm0.6-15c0.3-0.3 0.6-0.5 1-0.6 0-0.1 0.9-0.1 0.7-0.1 1.5-0.4 2.1 1.5 1.2 2.3-0.3 0.5-0.7 0.9-1.4 1-1.4 0.2-2.7-1.4-1.5-2.6zm-6.2 67.4c-2.2 0.3-4.2-1.8-3.6-4.1q0.2-0.7 0.5-1.3c1-1.7 3.3-2 4.6-0.6q0.6 0.4 0.9 1.1c1.2 2-0.1 4.5-2.4 4.9zm8.9-19.6c2.5-1.3 4.6 2.5 2.1 4-2.5 1.5-4.8-2.6-2.1-4zm15 0c-0.1-1.8 2.1-2.5 3.3-1.4 1.1 0.8 1.2 2.1 0.6 3.2-0.3 0.7-1.2 1-1.9 0.8-1.3-0.3-2-1.3-2-2.6zm12.8-26.9q0.3 0.1 0.4 0.3 0 0.1 0 0.2 0 0.1 0 0.1 0 0.1 0 0.2 0 0 0 0 0 0.2-0.1 0.4c-0.5 1.4-2.8 3.3-2.8 3.3-1.9-1-2-2.8-1.2-4 0.4-0.8 1.4-1.3 2.7-0.9q0.5 0.1 1 0.4zm-71.6-2c9.7-16.3 42.2-51.7 62.1-31.6 0.3-0.3 0.6-0.4 1.1-0.4 12.9 0.1 25 14 26.6 26.2 2.3 16.2-5.6 36.3-13.8 49.9-8.5 14.1-22.1 29.6-39.5 31.5-8.3 0.9-17-1.8-22.4-7.7-0.4 0.3-1 0.4-1.6 0.1-28.3-10.2-25-46.9-12.5-68zm64.7-27.3c4.3 13.4-2.4 26.7-11.8 36.7-14.2 15.1-42 27.2-37.9 51.3 7.2 10.6 22 11.3 32.9 4.8 11.1-6.5 19.4-17.8 25.4-28.9 10.1-19.2 20.2-56.2-8.6-63.9zm-69 63.5c0.4 10.6 5.5 18 13.1 23.9-6.6-9.5 7.8-26.3 13.9-32.1 16.7-15.8 43-29.1 40.3-55.7q-0.1 0-0.3 0c-1.2-0.3-1.7-1.4-1.6-2.4-22.6-11.4-47.4 16.1-57.6 34-5.4 9.6-8.3 21.2-7.8 32.3z"></path>
  </symbol>
</svg>